<svg xmlns="http://www.w3.org/2000/svg" viewBox="0 0 512 512" width="100%" height="100%">
  <defs>
    <radialGradient id="scannerGlow" cx="50%" cy="50%" r="50%">
      <stop offset="0%" stop-color="#06b6d4" stop-opacity="0.2"/>
      <stop offset="100%" stop-color="#030712" stop-opacity="0"/>
    </radialGradient>
    <filter id="neonNeonCyan" x="-20%" y="-20%" width="140%" height="140%">
      <feGaussianBlur stdDeviation="5" result="blur" />
      <feMerge>
        <feMergeNode in="blur" />
        <feMergeNode in="SourceGraphic" />
      </feMerge>
    </filter>
  </defs>

  <rect width="512" height="512" rx="32" fill="#0b0c10"/>
  
  <circle cx="256" cy="230" r="160" fill="url(#scannerGlow)"/>
  <circle cx="256" cy="230" r="170" fill="none" stroke="#1e293b" stroke-width="1.5"/>
  <circle cx="256" cy="230" r="110" fill="none" stroke="#1e293b" stroke-width="1" stroke-dasharray="6,4"/>

  <path d="M 96 230 Q 256 140 416 230" fill="none" stroke="#1e293b" stroke-width="2"/>
  <path d="M 110 160 Q 256 90 402 160" fill="none" stroke="#1e293b" stroke-width="1.5" stroke-dasharray="3,3"/>
  <path d="M 96 230 Q 256 320 416 230" fill="none" stroke="#1e293b" stroke-width="2"/>
  <path d="M 110 300 Q 256 370 402 300" fill="none" stroke="#1e293b" stroke-width="1.5" stroke-dasharray="3,3"/>
  
  <path d="M 256 70 Q 170 230 256 390" fill="none" stroke="#1e293b" stroke-width="2"/>
  <path d="M 256 70 Q 340 230 256 390" fill="none" stroke="#1e293b" stroke-width="2"/>
  <line x1="256" y1="70" x2="256" y2="390" stroke="#06b6d4" stroke-width="1" opacity="0.3"/>

  <path d="M 130 130 L 100 130 L 100 160" fill="none" stroke="#06b6d4" stroke-width="3.5" opacity="0.7"/>
  <path d="M 382 130 L 412 130 L 412 160" fill="none" stroke="#06b6d4" stroke-width="3.5" opacity="0.7"/>
  <path d="M 100 300 L 100 330 L 130 330" fill="none" stroke="#06b6d4" stroke-width="3.5" opacity="0.7"/>
  <path d="M 412 300 L 412 330 L 382 330" fill="none" stroke="#06b6d4" stroke-width="3.5" opacity="0.7"/>

  <path d="M 210 195 L 165 230 L 210 265" fill="none" stroke="#00ffcc" stroke-width="4.5" stroke-linecap="round" stroke-linejoin="round" filter="url(#neonNeonCyan)"/>
  
  <path d="M 302 195 L 347 230 L 302 265" fill="none" stroke="#00ffcc" stroke-width="4.5" stroke-linecap="round" stroke-linejoin="round" filter="url(#neonNeonCyan)"/>
  
  <line x1="275" y1="175" x2="237" y2="285" stroke="#06b6d4" stroke-width="5" stroke-linecap="round"/>

  <circle cx="165" cy="230" r="5" fill="#ffffff" filter="url(#neonNeonCyan)"/>
  <circle cx="347" cy="230" r="5" fill="#ffffff" filter="url(#neonNeonCyan)"/>
  <circle cx="256" cy="138" r="4" fill="#00ffcc"/>
  <circle cx="370" cy="200" r="3" fill="#06b6d4" opacity="0.8"/>

  <text x="256" y="445" fill="#64748b" font-family="'Courier New', monospace" font-size="14" font-weight="bold" letter-spacing="5" text-anchor="middle">
    WEB.CORE // OSINT
  </text>
</svg>
